<svg width="157" height="58" viewBox="0 0 157 58" fill="none" xmlns="http://www.w3.org/2000/svg">
<rect width="157" height="58" fill="#E5E5E5"/>
<g clip-path="url(#clip0_0_1)">
<rect width="157" height="58" fill="white"/>
<path d="M1.86 50C1.308 50 0.828 49.796 0.42 49.388C0.0360002 48.98 -0.156 48.5 -0.156 47.948V25.772C-0.156 25.22 0.0360002 24.74 0.42 24.332C0.828 23.924 1.308 23.72 1.86 23.72H2.652C4.02 23.72 5.028 24.32 5.676 25.52L14.568 41.576C14.568 41.6 14.58 41.612 14.604 41.612C14.628 41.612 14.64 41.6 14.64 41.576V25.772C14.64 25.22 14.844 24.74 15.252 24.332C15.66 23.924 16.14 23.72 16.692 23.72H17.484C18.036 23.72 18.504 23.924 18.888 24.332C19.296 24.74 19.5 25.22 19.5 25.772V47.948C19.5 48.5 19.296 48.98 18.888 49.388C18.504 49.796 18.036 50 17.484 50H16.692C15.324 50 14.316 49.4 13.668 48.2L4.776 32.144C4.776 32.12 4.764 32.108 4.74 32.108C4.716 32.108 4.704 32.12 4.704 32.144V47.948C4.704 48.5 4.5 48.98 4.092 49.388C3.684 49.796 3.204 50 2.652 50H1.86ZM32.4637 34.268C31.2397 34.268 30.2917 34.616 29.6197 35.312C28.9717 35.984 28.5637 37.076 28.3957 38.588C28.3957 38.78 28.4917 38.876 28.6837 38.876H35.7397C35.9317 38.876 36.0277 38.78 36.0277 38.588C35.9317 35.708 34.7437 34.268 32.4637 34.268ZM33.3637 50.36C30.2197 50.36 27.7957 49.544 26.0917 47.912C24.4117 46.256 23.5717 43.832 23.5717 40.64C23.5717 37.472 24.3277 35.06 25.8397 33.404C27.3517 31.748 29.5357 30.92 32.3917 30.92C37.7197 30.92 40.4557 33.944 40.5997 39.992C40.6237 40.568 40.4197 41.048 39.9877 41.432C39.5557 41.816 39.0517 42.008 38.4757 42.008H28.6477C28.4317 42.008 28.3477 42.116 28.3957 42.332C28.5637 43.94 29.0917 45.116 29.9797 45.86C30.8917 46.58 32.2117 46.94 33.9397 46.94C35.0197 46.94 36.2197 46.76 37.5397 46.4C37.9717 46.28 38.3677 46.352 38.7277 46.616C39.1117 46.88 39.3037 47.24 39.3037 47.696C39.3037 48.248 39.1357 48.74 38.7997 49.172C38.4877 49.58 38.0677 49.832 37.5397 49.928C36.1957 50.216 34.8037 50.36 33.3637 50.36ZM46.716 50C46.164 50 45.684 49.796 45.276 49.388C44.868 48.98 44.664 48.5 44.664 47.948V25.052C44.664 24.5 44.868 24.02 45.276 23.612C45.684 23.204 46.164 23 46.716 23H47.436C47.988 23 48.468 23.204 48.876 23.612C49.284 24.02 49.488 24.5 49.488 25.052V38.912C49.488 38.936 49.5 38.948 49.524 38.948H49.56L55.032 32.792C55.92 31.784 57.048 31.28 58.416 31.28H59.928C60.312 31.28 60.576 31.46 60.72 31.82C60.888 32.18 60.84 32.504 60.576 32.792L53.988 40.064C53.868 40.208 53.868 40.364 53.988 40.532L60.648 48.452C60.912 48.764 60.948 49.1 60.756 49.46C60.588 49.82 60.312 50 59.928 50H58.416C57.048 50 55.932 49.472 55.068 48.416L49.56 41.756C49.56 41.732 49.548 41.72 49.524 41.72C49.5 41.72 49.488 41.732 49.488 41.756V47.948C49.488 48.5 49.284 48.98 48.876 49.388C48.468 49.796 47.988 50 47.436 50H46.716ZM74.3438 35.924C73.6478 34.916 72.5918 34.412 71.1758 34.412C69.7598 34.412 68.6918 34.916 67.9718 35.924C67.2758 36.908 66.9278 38.48 66.9278 40.64C66.9278 42.8 67.2758 44.384 67.9718 45.392C68.6918 46.376 69.7598 46.868 71.1758 46.868C72.5918 46.868 73.6478 46.376 74.3438 45.392C75.0638 44.384 75.4238 42.8 75.4238 40.64C75.4238 38.48 75.0638 36.908 74.3438 35.924ZM77.8718 47.84C76.2878 49.52 74.0558 50.36 71.1758 50.36C68.2958 50.36 66.0518 49.52 64.4438 47.84C62.8598 46.136 62.0678 43.736 62.0678 40.64C62.0678 37.544 62.8598 35.156 64.4438 33.476C66.0518 31.772 68.2958 30.92 71.1758 30.92C74.0558 30.92 76.2878 31.772 77.8718 33.476C79.4798 35.156 80.2838 37.544 80.2838 40.64C80.2838 43.736 79.4798 46.136 77.8718 47.84ZM86.1956 50C85.6436 50 85.1636 49.796 84.7556 49.388C84.3716 48.98 84.1796 48.5 84.1796 47.948V25.052C84.1796 24.5 84.3716 24.02 84.7556 23.612C85.1636 23.204 85.6436 23 86.1956 23H86.9156C87.4676 23 87.9476 23.204 88.3556 23.612C88.7636 24.02 88.9676 24.5 88.9676 25.052V33.404C88.9676 33.428 88.9796 33.44 89.0036 33.44C89.0276 33.44 89.0516 33.428 89.0756 33.404C90.7556 31.748 92.6036 30.92 94.6196 30.92C96.8036 30.92 98.3876 31.544 99.3716 32.792C100.356 34.04 100.848 36.176 100.848 39.2V47.948C100.848 48.5 100.644 48.98 100.236 49.388C99.8276 49.796 99.3476 50 98.7956 50H98.2196C97.6676 50 97.1876 49.796 96.7796 49.388C96.3716 48.98 96.1676 48.5 96.1676 47.948V39.92C96.1676 37.832 95.9396 36.452 95.4836 35.78C95.0516 35.108 94.2236 34.772 92.9996 34.772C92.0396 34.772 91.1276 35.204 90.2636 36.068C89.3996 36.932 88.9676 37.856 88.9676 38.84V47.948C88.9676 48.5 88.7636 48.98 88.3556 49.388C87.9476 49.796 87.4676 50 86.9156 50H86.1956ZM108.753 50C108.201 50 107.721 49.796 107.313 49.388C106.905 48.98 106.701 48.5 106.701 47.948V33.332C106.701 32.78 106.905 32.3 107.313 31.892C107.721 31.484 108.201 31.28 108.753 31.28H109.689C110.241 31.28 110.721 31.484 111.129 31.892C111.537 32.3 111.741 32.78 111.741 33.332V47.948C111.741 48.5 111.537 48.98 111.129 49.388C110.721 49.796 110.241 50 109.689 50H108.753ZM108.753 27.32C108.201 27.32 107.721 27.116 107.313 26.708C106.905 26.3 106.701 25.82 106.701 25.268V25.052C106.701 24.5 106.905 24.02 107.313 23.612C107.721 23.204 108.201 23 108.753 23H109.689C110.241 23 110.721 23.204 111.129 23.612C111.537 24.02 111.741 24.5 111.741 25.052V25.268C111.741 25.82 111.537 26.3 111.129 26.708C110.721 27.116 110.241 27.32 109.689 27.32H108.753ZM125.417 34.52C122.777 34.52 121.457 36.44 121.457 40.28C121.457 42.272 121.805 43.76 122.501 44.744C123.221 45.728 124.193 46.22 125.417 46.22C126.497 46.22 127.421 45.836 128.189 45.068C128.981 44.3 129.377 43.4 129.377 42.368V38.48C129.377 37.376 128.981 36.44 128.189 35.672C127.421 34.904 126.497 34.52 125.417 34.52ZM123.905 49.82C121.793 49.82 120.065 48.98 118.721 47.3C117.377 45.596 116.705 43.256 116.705 40.28C116.705 37.304 117.341 35 118.613 33.368C119.909 31.736 121.673 30.92 123.905 30.92C125.033 30.92 126.029 31.124 126.893 31.532C127.757 31.94 128.609 32.624 129.449 33.584C129.473 33.608 129.497 33.62 129.521 33.62C129.545 33.62 129.557 33.608 129.557 33.584V33.332C129.581 32.756 129.797 32.276 130.205 31.892C130.613 31.484 131.105 31.28 131.681 31.28H132.077C132.629 31.28 133.097 31.484 133.481 31.892C133.889 32.3 134.093 32.78 134.093 33.332V48.56C134.093 55.04 130.853 58.28 124.373 58.28C123.221 58.28 122.009 58.184 120.737 57.992C120.161 57.896 119.681 57.608 119.297 57.128C118.937 56.672 118.757 56.144 118.757 55.544C118.757 55.064 118.949 54.68 119.333 54.392C119.741 54.128 120.185 54.056 120.665 54.176C121.817 54.464 123.017 54.608 124.265 54.608C126.041 54.608 127.337 54.14 128.153 53.204C128.969 52.292 129.377 50.78 129.377 48.668V47.552C129.377 47.528 129.365 47.516 129.341 47.516C129.317 47.516 129.293 47.528 129.269 47.552C127.829 49.064 126.041 49.82 123.905 49.82ZM146.686 34.268C145.462 34.268 144.514 34.616 143.842 35.312C143.194 35.984 142.786 37.076 142.618 38.588C142.618 38.78 142.714 38.876 142.906 38.876H149.962C150.154 38.876 150.25 38.78 150.25 38.588C150.154 35.708 148.966 34.268 146.686 34.268ZM147.586 50.36C144.442 50.36 142.018 49.544 140.314 47.912C138.634 46.256 137.794 43.832 137.794 40.64C137.794 37.472 138.55 35.06 140.062 33.404C141.574 31.748 143.758 30.92 146.614 30.92C151.942 30.92 154.678 33.944 154.822 39.992C154.846 40.568 154.642 41.048 154.21 41.432C153.778 41.816 153.274 42.008 152.698 42.008H142.87C142.654 42.008 142.57 42.116 142.618 42.332C142.786 43.94 143.314 45.116 144.202 45.86C145.114 46.58 146.434 46.94 148.162 46.94C149.242 46.94 150.442 46.76 151.762 46.4C152.194 46.28 152.59 46.352 152.95 46.616C153.334 46.88 153.526 47.24 153.526 47.696C153.526 48.248 153.358 48.74 153.022 49.172C152.71 49.58 152.29 49.832 151.762 49.928C150.418 50.216 149.026 50.36 147.586 50.36Z" fill="black" fill-opacity="0.57"/>
<g filter="url(#filter0_d_0_1)">
<path d="M127 2L124.439 10L119.317 14.5714L112 18" stroke="#FCA805" stroke-opacity="0.8" stroke-width="5" stroke-linejoin="round" shape-rendering="crispEdges"/>
</g>
<g filter="url(#filter1_d_0_1)">
<path d="M138 6L135.439 14L130.317 18.5714L123 22" stroke="#FCA805" stroke-opacity="0.8" stroke-width="5" stroke-linejoin="round" shape-rendering="crispEdges"/>
</g>
<g filter="url(#filter2_d_0_1)">
<path d="M146 10L143.439 19.5L138.317 24.9286L131 29" stroke="#FCA805" stroke-opacity="0.8" stroke-width="5" stroke-linejoin="round" shape-rendering="crispEdges"/>
</g>
</g>
<defs>
<filter id="filter0_d_0_1" x="106.939" y="1.23779" width="26.4417" height="27.026" filterUnits="userSpaceOnUse" color-interpolation-filters="sRGB">
<feFlood flood-opacity="0" result="BackgroundImageFix"/>
<feColorMatrix in="SourceAlpha" type="matrix" values="0 0 0 0 0 0 0 0 0 0 0 0 0 0 0 0 0 0 127 0" result="hardAlpha"/>
<feOffset dy="4"/>
<feGaussianBlur stdDeviation="2"/>
<feComposite in2="hardAlpha" operator="out"/>
<feColorMatrix type="matrix" values="0 0 0 0 0 0 0 0 0 0 0 0 0 0 0 0 0 0 0.25 0"/>
<feBlend mode="normal" in2="BackgroundImageFix" result="effect1_dropShadow_0_1"/>
<feBlend mode="normal" in="SourceGraphic" in2="effect1_dropShadow_0_1" result="shape"/>
</filter>
<filter id="filter1_d_0_1" x="117.939" y="5.23779" width="26.4417" height="27.026" filterUnits="userSpaceOnUse" color-interpolation-filters="sRGB">
<feFlood flood-opacity="0" result="BackgroundImageFix"/>
<feColorMatrix in="SourceAlpha" type="matrix" values="0 0 0 0 0 0 0 0 0 0 0 0 0 0 0 0 0 0 127 0" result="hardAlpha"/>
<feOffset dy="4"/>
<feGaussianBlur stdDeviation="2"/>
<feComposite in2="hardAlpha" operator="out"/>
<feColorMatrix type="matrix" values="0 0 0 0 0 0 0 0 0 0 0 0 0 0 0 0 0 0 0.25 0"/>
<feBlend mode="normal" in2="BackgroundImageFix" result="effect1_dropShadow_0_1"/>
<feBlend mode="normal" in="SourceGraphic" in2="effect1_dropShadow_0_1" result="shape"/>
</filter>
<filter id="filter2_d_0_1" x="125.784" y="9.34927" width="26.6294" height="29.8353" filterUnits="userSpaceOnUse" color-interpolation-filters="sRGB">
<feFlood flood-opacity="0" result="BackgroundImageFix"/>
<feColorMatrix in="SourceAlpha" type="matrix" values="0 0 0 0 0 0 0 0 0 0 0 0 0 0 0 0 0 0 127 0" result="hardAlpha"/>
<feOffset dy="4"/>
<feGaussianBlur stdDeviation="2"/>
<feComposite in2="hardAlpha" operator="out"/>
<feColorMatrix type="matrix" values="0 0 0 0 0 0 0 0 0 0 0 0 0 0 0 0 0 0 0.25 0"/>
<feBlend mode="normal" in2="BackgroundImageFix" result="effect1_dropShadow_0_1"/>
<feBlend mode="normal" in="SourceGraphic" in2="effect1_dropShadow_0_1" result="shape"/>
</filter>
<clipPath id="clip0_0_1">
<rect width="157" height="58" fill="white"/>
</clipPath>
</defs>
</svg>
